<svg width="216" height="71" viewBox="0 0 216 71" fill="none" xmlns="http://www.w3.org/2000/svg">
<circle cx="30.5" cy="30.5" r="30.5" fill="#00BF29"/>
<circle cx="30.3956" cy="23.7106" r="3.86473" fill="white"/>
<path d="M17.7411 22.6919C35.0795 46.7158 48.5223 10.0285 48.5224 24.3508C48.5226 38.673 43.647 22.1853 35.0797 40.6576C26.5124 59.1299 0.402605 -1.3319 17.7411 22.6919Z" fill="white"/>
<path d="M86.168 35.32C84.3973 35.32 82.8187 34.936 81.432 34.168C80.0667 33.3787 78.9893 32.3013 78.2 30.936C77.4107 29.5707 77.016 28.024 77.016 26.296V12.504H81.368V26.424C81.368 27.4267 81.5707 28.2907 81.976 29.016C82.4027 29.7413 82.9787 30.3067 83.704 30.712C84.4507 31.096 85.272 31.288 86.168 31.288C87.0853 31.288 87.896 31.096 88.6 30.712C89.304 30.3067 89.8587 29.7413 90.264 29.016C90.6907 28.2907 90.904 27.4373 90.904 26.456V12.504H95.288V26.328C95.288 28.056 94.8933 29.6027 94.104 30.968C93.3147 32.312 92.2373 33.3787 90.872 34.168C89.528 34.936 87.96 35.32 86.168 35.32ZM109.537 35V26.136C109.537 25.2187 109.249 24.472 108.673 23.896C108.097 23.32 107.351 23.032 106.433 23.032C105.836 23.032 105.303 23.16 104.833 23.416C104.364 23.672 103.991 24.0347 103.713 24.504C103.457 24.9733 103.329 25.5173 103.329 26.136L101.697 25.304C101.697 24.088 101.953 23.032 102.465 22.136C102.999 21.2187 103.724 20.504 104.641 19.992C105.58 19.48 106.636 19.224 107.809 19.224C108.94 19.224 109.953 19.512 110.849 20.088C111.745 20.6427 112.449 21.3787 112.961 22.296C113.473 23.192 113.729 24.1627 113.729 25.208V35H109.537ZM99.1373 35V19.544H103.329V35H99.1373ZM117.106 35V19.544H121.33V35H117.106ZM119.218 17.048C118.535 17.048 117.97 16.824 117.522 16.376C117.074 15.9067 116.85 15.3307 116.85 14.648C116.85 13.9867 117.074 13.4213 117.522 12.952C117.97 12.4827 118.535 12.248 119.218 12.248C119.922 12.248 120.487 12.4827 120.914 12.952C121.362 13.4213 121.586 13.9867 121.586 14.648C121.586 15.3307 121.362 15.9067 120.914 16.376C120.487 16.824 119.922 17.048 119.218 17.048ZM132.34 35.32C130.761 35.32 129.342 34.968 128.084 34.264C126.825 33.56 125.833 32.6 125.108 31.384C124.382 30.168 124.02 28.8027 124.02 27.288C124.02 25.752 124.382 24.376 125.108 23.16C125.833 21.944 126.825 20.984 128.084 20.28C129.364 19.5547 130.782 19.192 132.34 19.192C133.556 19.192 134.676 19.416 135.7 19.864C136.724 20.312 137.609 20.952 138.356 21.784L135.668 24.504C135.262 24.056 134.772 23.7147 134.196 23.48C133.641 23.2453 133.022 23.128 132.34 23.128C131.572 23.128 130.878 23.3093 130.26 23.672C129.662 24.0133 129.182 24.4933 128.82 25.112C128.478 25.7093 128.308 26.424 128.308 27.256C128.308 28.0667 128.478 28.792 128.82 29.432C129.182 30.0507 129.662 30.5413 130.26 30.904C130.878 31.2453 131.572 31.416 132.34 31.416C133.044 31.416 133.673 31.2987 134.228 31.064C134.804 30.808 135.294 30.4453 135.7 29.976L138.42 32.696C137.63 33.5493 136.724 34.2 135.7 34.648C134.676 35.096 133.556 35.32 132.34 35.32ZM147.714 35.32C146.156 35.32 144.748 34.968 143.49 34.264C142.252 33.5387 141.26 32.568 140.514 31.352C139.788 30.1147 139.426 28.7387 139.426 27.224C139.426 25.7093 139.788 24.3547 140.514 23.16C141.239 21.944 142.231 20.984 143.49 20.28C144.748 19.5547 146.146 19.192 147.682 19.192C149.26 19.192 150.668 19.5547 151.906 20.28C153.164 20.984 154.156 21.944 154.882 23.16C155.607 24.3547 155.97 25.7093 155.97 27.224C155.97 28.7387 155.607 30.1147 154.882 31.352C154.156 32.568 153.164 33.5387 151.906 34.264C150.668 34.968 149.271 35.32 147.714 35.32ZM147.682 31.416C148.471 31.416 149.164 31.2453 149.762 30.904C150.38 30.5413 150.85 30.0507 151.17 29.432C151.511 28.792 151.682 28.0667 151.682 27.256C151.682 26.4453 151.511 25.7307 151.17 25.112C150.828 24.4933 150.359 24.0133 149.762 23.672C149.164 23.3093 148.471 23.128 147.682 23.128C146.914 23.128 146.231 23.3093 145.634 23.672C145.036 24.0133 144.567 24.4933 144.226 25.112C143.884 25.7307 143.714 26.4453 143.714 27.256C143.714 28.0667 143.884 28.792 144.226 29.432C144.567 30.0507 145.036 30.5413 145.634 30.904C146.231 31.2453 146.914 31.416 147.682 31.416ZM158.669 35V19.544H162.861V35H158.669ZM162.861 26.456L161.229 25.368C161.421 23.4693 161.975 21.976 162.893 20.888C163.81 19.7787 165.133 19.224 166.861 19.224C167.607 19.224 168.279 19.352 168.877 19.608C169.474 19.8427 170.018 20.2373 170.509 20.792L167.885 23.8C167.65 23.544 167.362 23.352 167.021 23.224C166.701 23.096 166.327 23.032 165.901 23.032C165.005 23.032 164.269 23.32 163.693 23.896C163.138 24.4507 162.861 25.304 162.861 26.456ZM182.319 35V26.136C182.319 25.2187 182.031 24.472 181.455 23.896C180.879 23.32 180.132 23.032 179.215 23.032C178.617 23.032 178.084 23.16 177.615 23.416C177.145 23.672 176.772 24.0347 176.495 24.504C176.239 24.9733 176.111 25.5173 176.111 26.136L174.479 25.304C174.479 24.088 174.735 23.032 175.247 22.136C175.78 21.2187 176.505 20.504 177.423 19.992C178.361 19.48 179.417 19.224 180.591 19.224C181.721 19.224 182.735 19.512 183.631 20.088C184.527 20.6427 185.231 21.3787 185.743 22.296C186.255 23.192 186.51 24.1627 186.51 25.208V35H182.319ZM171.919 35V19.544H176.111V35H171.919Z" fill="#013E70"/>
<path d="M79.752 55L75.32 43.752H77.672L81.096 52.856H80.184L83.64 43.752H85.96L81.48 55H79.752ZM89.4053 55.16C88.5946 55.16 87.8746 54.9893 87.2453 54.648C86.6159 54.296 86.1146 53.816 85.7413 53.208C85.3786 52.6 85.1973 51.9067 85.1973 51.128C85.1973 50.36 85.3733 49.6773 85.7253 49.08C86.0879 48.472 86.5786 47.992 87.1973 47.64C87.8159 47.2773 88.5039 47.096 89.2613 47.096C90.0079 47.096 90.6639 47.2667 91.2293 47.608C91.8053 47.9387 92.2533 48.3973 92.5733 48.984C92.9039 49.56 93.0693 50.216 93.0693 50.952C93.0693 51.0907 93.0586 51.2347 93.0373 51.384C93.0266 51.5227 92.9999 51.6827 92.9573 51.864L86.4613 51.88V50.312L91.9813 50.296L91.1333 50.952C91.1119 50.4933 91.0266 50.1093 90.8773 49.8C90.7386 49.4907 90.5306 49.256 90.2533 49.096C89.9866 48.9253 89.6559 48.84 89.2613 48.84C88.8453 48.84 88.4826 48.936 88.1733 49.128C87.8639 49.3093 87.6239 49.5707 87.4533 49.912C87.2933 50.2427 87.2133 50.6373 87.2133 51.096C87.2133 51.5653 87.2986 51.976 87.4693 52.328C87.6506 52.6693 87.9066 52.936 88.2373 53.128C88.5679 53.3093 88.9519 53.4 89.3893 53.4C89.7839 53.4 90.1413 53.336 90.4613 53.208C90.7813 53.0693 91.0586 52.8667 91.2933 52.6L92.5253 53.832C92.1519 54.2693 91.6933 54.6 91.1493 54.824C90.6159 55.048 90.0346 55.16 89.4053 55.16ZM94.3655 55V47.272H96.4615V55H94.3655ZM96.4615 50.728L95.6455 50.184C95.7415 49.2347 96.0188 48.488 96.4775 47.944C96.9362 47.3893 97.5975 47.112 98.4615 47.112C98.8348 47.112 99.1708 47.176 99.4695 47.304C99.7682 47.4213 100.04 47.6187 100.286 47.896L98.9735 49.4C98.8562 49.272 98.7122 49.176 98.5415 49.112C98.3815 49.048 98.1948 49.016 97.9815 49.016C97.5335 49.016 97.1655 49.16 96.8775 49.448C96.6002 49.7253 96.4615 50.152 96.4615 50.728ZM101.022 55V47.272H103.134V55H101.022ZM102.078 46.024C101.736 46.024 101.454 45.912 101.23 45.688C101.006 45.4533 100.894 45.1653 100.894 44.824C100.894 44.4933 101.006 44.2107 101.23 43.976C101.454 43.7413 101.736 43.624 102.078 43.624C102.43 43.624 102.712 43.7413 102.926 43.976C103.15 44.2107 103.262 44.4933 103.262 44.824C103.262 45.1653 103.15 45.4533 102.926 45.688C102.712 45.912 102.43 46.024 102.078 46.024ZM106.015 55V46.44C106.015 45.8213 106.148 45.2773 106.414 44.808C106.681 44.328 107.06 43.9493 107.551 43.672C108.041 43.3947 108.617 43.256 109.279 43.256C109.78 43.256 110.212 43.3413 110.575 43.512C110.937 43.6827 111.263 43.9173 111.551 44.216L110.223 45.56C110.105 45.4427 109.977 45.352 109.839 45.288C109.7 45.224 109.524 45.192 109.311 45.192C108.927 45.192 108.628 45.2987 108.415 45.512C108.212 45.7147 108.111 46.008 108.111 46.392V55H106.015ZM104.223 49.112V47.272H110.399V49.112H104.223ZM113.938 55.064L110.706 47.272H112.978L115.122 53.224H114.354L116.578 47.272H118.866L115.426 55.064H113.938ZM111.794 58.232L114.146 53.256L115.426 55.064L114.018 58.232H111.794Z" fill="#00BF29"/>
<circle cx="30.5001" cy="36.976" r="2.29795" fill="#00BF29"/>
</svg>
